<svg xmlns="http://www.w3.org/2000/svg" version="1.0" viewBox="0 0 2048 2048"><path d="M946 656.6c-28 1.9-37.5 2.8-50 4.5-18.2 2.5-35.9 6.2-47.5 9.9-4.9 1.6-15.1 4.5-22.6 6.4-51.9 13.4-96.8 34.7-132.1 62.8-13.6 10.8-35 31.8-45.1 44.3-33.7 41.8-59.3 99.6-67.1 152.1-5.7 37.8-4.2 73.3 6.4 149.9l4 28.8-5.5 7.6c-11.1 15.4-26.5 31.1-37.7 38.4-2.7 1.7-4.8 3.8-4.8 4.8 0 2.7 7.4 8.4 17.4 13.4 15.2 7.5 32.7 10.3 51.5 8.2l7.4-.9-3.6 4.9c-2 2.6-5.3 7.2-7.4 10.1-3.5 5-3.6 5.3-1.9 7 1.3 1.3 3.3 1.7 8.9 1.5l7.2-.1-7.3 1.9c-9.3 2.5-16 5.6-17.3 8.1-1.4 2.6-.2 16.5 2.2 25.6 2.4 9.2 2.4 8.9-1 9.7-1.6.3-3.7 1.5-4.7 2.6-1.8 2-1.8 2.3-.1 8.7 3.8 14.5 19 40.9 33.2 57.5 7.5 8.8 15.7 15.7 18.7 15.7 2.8 0 7.5-3.6 17.6-13.4 4.5-4.4 8.2-7.4 8.2-6.7s-1.6 8.8-3.6 17.9c-3.9 18.4-12 47.1-18.4 65.7-8.8 25.4-34.1 90.1-46.9 119.8-2.8 6.5-5.1 12.1-5.1 12.3s3.3.4 7.4.4h7.3l9.8-25.3c29-74.9 49.5-139.7 60.1-190.2 3.4-15.8 4-17.5 8.4-24.5 6.7-10.5 10.7-14.3 13.9-13.5 1.4.3 5.8.8 9.8 1.2 6.1.5 7.8.2 11.9-1.7 2.6-1.3 6.8-4.3 9.3-6.7l4.5-4.4 9.1 2.2c4.9 1.1 13.1 2.4 18 2.8l9 .6.3 11c.9 31.9-9.2 82.1-26.1 129.7-12 33.8-37.8 86.7-53.7 110.3-2.8 4.1-5 7.7-5 8s2.2.5 4.8.5h4.8l9.9-15.3c28.9-44.5 44-74.6 57-114.2 3.5-10.5 7.7-25.1 9.4-32.5 5.8-26.1 6.4-32 6.7-66l.3-31.5 6.8-.8c9.5-1 16.6-3.2 25-7.7l7.3-3.9 5.2 1.8c2.9 1 7.8 2.4 10.8 3 3 .7 6.1 1.4 6.8 1.7.9.2-.3 2.3-3.4 5.8-6.9 7.7-12.1 16.9-13.5 23.4-2.2 10.9.4 23.5 5.9 28.5 3.8 3.4 5.4 1.9 8.2-7.8 3.3-11.2 5.9-17.6 11.7-28.7 4.8-9.4 10.7-17.8 12.5-17.8 1.9 0 .3 43.2-2.2 59.5-5.4 36-17.6 79.8-32.2 115.9-6.9 17.2-17.1 39-21.2 45.4-1.6 2.6-2.6 5.4-2.4 7 .3 2.3.9 2.8 4.5 3.4 14.4 2.4 35.1 4.1 51.3 4.2l18.5.1 5.5 3.1c11.8 6.8 36.2 15 59.5 20l13 2.9 64 .2 64 .3-3.5-2.1c-37.2-22.8-63.8-43.4-89.5-69.3-24.8-24.9-44.6-50.7-59.3-77.1-7.9-14.3-8.7-15.3-10.3-13.8-1 1-.6 2.7 1.7 8.5 3.5 8.7 12.7 25.6 19.5 35.5 3.1 4.7 4.3 7.3 3.4 7.3-1.5 0-2.3 4.8-2.3 14.5 0 3.3-.9 9.6-2.1 14-1.3 5.3-2.4 14.4-3.1 26.5l-1.1 18.5-3.2 2.6c-3.1 2.6-3.2 2.9-3.1 10.3l.2 7.7-3.2-.7c-9-1.9-37.6-13.2-37.6-14.7 0-.2.9-2.2 2-4.6 2.6-5.2 12.7-31.6 16.5-42.9l2.8-8.3-1.8-7.9-1.8-8 3.4-5.2 3.4-5.3.5-32.2c.3-17.7.8-32.5 1.3-32.9.4-.4 7.4.5 15.5 1.9 8.1 1.5 21.5 3.8 29.7 5.1l15 2.4 12.5 7.2c21.8 12.7 64.1 32.3 79.6 36.9 10.1 3.1 29.3 6.1 42.4 6.8 11.2.5 11.9.4 26-3.5 19.1-5.2 27.2-6.6 36.2-6 11.2.7 17.9 4.7 26.8 15.8 3.8 4.8 9.2 12.6 12 17.3 4.9 8.4 7.4 10.4 8.7 7.1.6-1.6-5.7-15.2-10.2-21.8-1.4-2.1-2.5-3.9-2.3-4.1 2.5-2.1 22.4-9.5 25.7-9.5 2 0 10.1 6.4 10.1 8 0 .4-2.4 1-5.3 1.3-7 .9-14.1 3.4-16.3 5.8-2.7 3-1.1 3.3 5.8 1 3.5-1.1 9.3-2.3 12.9-2.7l6.6-.6 2 4.8c2.3 5.2 5.3 15 5.3 16.9 0 .7-3.2 1.6-7.9 2.3-8.6 1.2-13.4 2.9-12.8 4.6.2.6 1.5 1 2.8.9 1.3-.2 6.3-.6 11-.9l8.7-.7 2.5 11.4c4.5 19.7 4.7 21.3 3.4 22.5-1.6 1.5-9.7 4-17.1 5.3-8.8 1.6-9.6 1.5-9.6-1.4 0-3.2-3.9-13.5-5.1-13.5-.6 0-.7 2-.2 5.2 1.5 10 .8 21.8-1.7 28.3-1.9 4.9-4.1 7.8-12.1 15.7l-9.7 9.8h13.5l7.9-8.2 7.8-8.2 15.9-2.2c17.5-2.5 18.3-2.9 21.8-10.1 1.8-3.6 2.1-5.7 1.6-10.8-.4-5.5-.2-6.7 1.5-8.2 3-2.7 9.8-14.6 11.4-19.9.8-2.6 2.1-5.5 2.9-6.4 2.4-2.7 4.3-8.2 5-15.2l.7-6.8 7.7.7c4.2.3 8.1.8 8.8 1.2s-1.3 4.4-5.8 11.6c-9.4 15-17.8 30.9-23.4 44-5.2 12.1-11 28.9-12 34.7-.7 3.6-.6 3.8 1.8 3.8 2.3 0 2.8-.7 4.2-5.8 2.5-8.5 12.1-32.5 17-42.3 13.5-26.8 33.3-55.1 53.3-76.3 10.5-11.1 14.2-16 12.9-17.3-1.6-1.5-8.9 3.9-18.8 14l-10.6 10.8-.7-9.3c-1.1-14.3-1.6-15.9-6.1-18.9-7.2-4.8-27.8-14.6-40-19-11.1-3.9-12.5-4.7-18.5-10.5-7.6-7.3-15.3-13.6-22.9-18.7-6.8-4.5-5.2-5.6 4.8-3.2 10.6 2.6 29.8 1.7 40.9-1.9 5.1-1.7 9.6-3.9 11.8-5.9l3.7-3.1-.6-12.6c-.4-9.1-1.2-15.1-3.1-22-3.1-11-10.1-26.1-14.4-30.7-2.6-2.8-3.7-3.2-10.8-3.8-9.9-1-26.8-.1-36 1.9-14.1 3-32.3 11.2-33.8 15.3-.3.7.3 3.6 1.3 6.5s1.9 5.7 2.1 6.3c.2.5-1.2 4.1-3.1 8-3.1 6.3-3.4 7.9-3.4 15.6v8.5l-7.1-2.2c-15.6-4.8-25.3-5.9-50.9-5.9-23.3.1-26.7.4-44.1 4l-3.1.7 1.8-12.4c2.4-15.9 3.4-20.5 7.4-36.8 8.2-32.9 17.2-56.1 30.6-79.1 3.4-5.9 4.4-6.9 9.9-9.3 8.6-3.9 18.6-7.2 28.2-9.3 6.9-1.5 12.8-1.8 35.3-1.8 25.9 0 27.5.1 38.6 2.8 50.7 12 93.8 39.5 123.2 78.6 20.4 27.1 27.4 44.4 28.4 70.3 1.1 27.9-2.6 38.2-18 49.1-11.2 8-17.6 10.4-30.2 11.6-5.3.4-7 1-7 2.1 0 2.7 15.1 2.4 22.7-.5 1.7-.7 1.7-.5.3 2.9-.8 1.9-1.5 5.4-1.5 7.7 0 3.6.6 4.8 3.9 7.9l3.8 3.7-2.5 4.2c-1.6 2.7-2.5 5.9-2.6 9.4-.2 3.3-1 6.5-2.5 8.8-2.4 4.1-4.7 19.6-3.7 25.2 1.2 6.5 9.5 11.4 16.2 9.5 4-1.1 11-5.4 13.3-8.2.8-.9 1.7-1.6 2.1-1.6 1.8 0 10.2 22.2 12.5 33.2 2 9.2 2.9 24.1 2 32.3l-.7 6.9-1.9-2.5c-1-1.3-3.5-5.6-5.4-9.6-3.2-6.4-3.5-7.6-2.6-10.8 1.1-4 .5-6.8-1.3-6.2-.6.1-3 3.2-5.3 6.8-10.9 16.7-22.1 30-23.4 27.7-1.7-3.1-5.1-22.2-5.6-31.6-.8-13.9-1.5-13.5-8.9 3.8-1.9 4.7-6.4 13.8-10 20.2-3.5 6.4-6.4 12-6.4 12.3s1.4.5 3.2.3c3.4-.3 3.6-.5 13.4-18.3l3.9-7 .7 9.5c.4 5.2 1.1 10.8 1.6 12.5.8 2.9 1.1 3 7.4 3.3l6.6.3 6.5-7.3c3.6-4 7.6-8.6 8.9-10.2l2.4-2.9 3.1 5.4c1.7 3 4.8 7.3 6.8 9.6 6.6 7.7 10.4 5.2 12.5-8.3.6-3.8 1.2-6.9 1.3-7.1.1-.1 4.2 4.5 9.1 10.3l8.8 10.4h5c4.3 0 4.8-.2 3.9-1.8-1.6-2.8-19.8-23.4-23.5-26.3l-3.3-2.8-.6-12.3c-.4-6.8-1-13.8-1.3-15.7l-.7-3.4 4.5.5c4.7.5 12.3 4.6 28.8 15.3 5.2 3.4 12 7.6 15.2 9.4l5.6 3.2-7.9 16.7-7.9 16.7 2.6.3c1.4.2 3.1.1 3.7-.1.7-.3 5.5-8.8 10.7-19.1 5.2-10.2 9.7-18.6 10-18.6s2.1 1.3 4 3l3.5 2.9-8.3 16.1-8.2 16.1 5.2-.3 5.3-.3 9.1-17.8c5-9.8 9.4-17.8 9.8-17.8s2.5 2.5 4.7 5.6l3.9 5.6-6 11.9c-3.3 6.6-6 12.2-6 12.5s1.9.5 4.3.5h4.4l4.6-9.8c5.8-12.1 6.4-15 4.3-20.5-1.9-4.8-11.1-17.3-14.3-19.4-1.9-1.3-2.3-1.2-4.2.8-1.2 1.3-2.7 3.5-3.3 5.1-.7 1.5-1.5 2.8-1.8 2.8s-2.2-1.1-4.3-2.5l-3.7-2.6 1.9-3.7c2.6-5.2 3.3-8.9 2.2-11.1-1.4-2.5-10.5-7.7-38.3-22-25.7-13.2-26.3-13.3-39.3-11.1-2.7.4-5.1.7-5.2.6-.1 0 1.3-2.6 3.1-5.6 7.2-12.2 9.4-24.1 6.5-35.4-1-3.9-.8-4.9 1.5-9.5 5.3-10.4 4.4-19.4-2.7-26.5l-4.3-4.2 1.7-5.6c6.1-19.7 4.3-51.5-4-72.1-8-20.1-31.6-53-47.5-66.3-2.5-2.1-4.4-4-4.2-4.2 1.1-1 24.6 12.2 34.3 19.4 1.2.9 3 1.3 4.1 1 1.1-.4 6.1-5.8 11.1-12.1 5.1-6.3 12.3-15.1 16.1-19.5 9.9-11.5 9.5-13.5-4.6-21.8-13.2-7.9-35.4-14.2-50.1-14.2-8.6-.1-7.6-.6 10.7-6.3 23-7.2 33.9-9.8 43.5-10.4 5-.3 9.6-1 10.3-1.6 3.3-2.6-.3-15-8.4-28.3-8.4-13.9-15.6-22.4-23.7-27.6-4.1-2.6-5.3-3-8.9-2.4-13.7 2.2-36.7 16.2-52.4 32-13.8 13.9-26.6 33.7-32.9 51.1-1 2.7-2 5.1-2.1 5.3s-5.8-1.9-12.6-4.6c-6.7-2.7-16.9-6.2-22.6-7.8l-10.3-2.8 5.9-2.8c9.5-4.5 9.3-7.2-.7-10.2-11.2-3.3-10.7-4.1 3.1-5.3 15.1-1.4 21.1-3.4 34.6-11.6 12-7.3 19.2-13.1 19.2-15.7 0-1-2.5-3.6-5.7-6.1-3.2-2.3-8.6-7.2-12-10.7l-6.3-6.5 3-5.1c17-28.6 24-55.1 24-90.8 0-43.3-10.3-83.5-33.9-132.3-20.5-42.3-46.9-78.8-80.2-111-27.2-26.2-53.5-44.8-86.4-61-39.5-19.5-70.8-29-113.5-34.6-14.9-1.9-54.9-3.3-69-2.3m65.8 12.8c34.7 4.6 58.1 10.6 88.2 22.8 42.7 17.3 78.4 41.1 112 74.8 29 29 50.9 59.2 70.5 97.3 15.7 30.4 22.8 48.8 29 75.2 4.9 20.9 6 30.6 6 55.5 0 20.6-.3 24.9-2.3 34.8-6.2 30.6-21 59.6-40.8 79.9l-8.5 8.8.6-3.7c.7-4.2-1-29.8-2.6-39.8-1.3-8.2-4.7-20.6-6.5-24.3-1-1.8-2.2-2.7-3.9-2.7-2.7 0-5 3.2-4.1 5.7 1.8 4.5-13.7 21.6-27.6 30.7-9.4 6.1-16.5 9.5-28.7 13.7l-8.3 2.8.6-2.2c5-16.9 9-38.8 10.7-58 1.3-14.1.7-49-.9-54.2-.8-2.6 0-4.7 5.9-16.7 5.3-10.8 6.9-13.3 7.4-11.7 1.2 3.7.6 21.2-.9 29.3-1.9 9.4-1 12.2 3.2 11.1 3.9-.9 6.8-3.9 12.7-13.1 6.9-10.5 9.2-15.2 12.7-25.4 5.5-16.3 6.9-33 4.7-55.6-2.9-30.4-11.3-55.5-27.7-83.2-10.6-17.8-21.2-31.2-38.2-48.3-26.9-27-57.8-47.7-87.3-58.4-11-3.9-14-4.4-13.5-1.9.2 1.1 3.7 3.1 9.3 5.3 5 2 14.2 6.5 20.5 10 25.4 14 42.7 26.8 61 45.1 32.4 32.3 54.4 70.3 62.9 108.8 3.9 17.2 5.3 45.2 3 59.2-1.2 7.7-6.1 22.3-9.9 30l-2.8 5.5v-9c-.1-10-.9-14.6-4.6-25-4.5-12.8-7.4-11.7-13.2 5.1-9.7 28.5-27.7 54.5-45.8 66.3-5.6 3.7-15.3 7.9-16 7-.1-.2-1.6-7.7-3.4-16.5-4.2-22-12.2-45.5-25.9-76.2-.8-1.8 2.1-1.5 15.4 1.3 14.1 3 13.3 2.9 13.3.6 0-2.1-13.1-14.9-22.2-21.7-3.5-2.6-10.2-6.6-15.1-9-8.7-4.2-8.8-4.3-14.9-13.6-8.9-13.6-15.9-22.8-23.1-30.5-5.5-5.9-6.7-7.8-8.6-14.3-6.9-22.8-22.3-55.7-35.2-75-11.3-16.9-24-31-27.9-31-2.4 0-.5 3.6 7.7 13.7 10.5 13.1 18.5 25.2 25.8 38.7 12 22.5 23.3 53.1 27.8 75.6 2.4 11.6 5.2 32.9 4.5 33.4-.2.2-2.3 1.3-4.8 2.5-7.3 3.7-14.6 9.8-18.6 15.7-5.7 8.2-4.9 8.8 11 9.2l12.8.3-.7 6.7c-1.9 19.8-7.3 45-13.1 61.4-3.6 10.2-14.6 33-15.5 32.1-.6-.7-9.2-21.6-12.4-30.1-1.8-5-3-5.7-5.4-3.3-1.2 1.2-2.1 3-2.1 4.1 0 6.8-14.2 26.9-25.6 36.1-10.7 8.8-30.2 19.9-34.8 19.9-1.1 0-1.3-2.9-.8-17.3.9-31.9-4-89.1-12.3-142.4-6.7-42.8-8.4-49.8-11.6-46.6-.7.7-.1 6.4 2 19.4 4.1 24.7 8.7 68.6 10.6 100.4.8 14.3 1.7 30.8 2.1 36.7.3 6.1.2 10.8-.3 10.8-1 0-16.5-17.3-23.1-25.8-6.3-8.1-19.8-28.5-22.8-34.4-1.9-3.8-2.3-5.3-1.4-5.8.7-.4 6.9-2.4 13.9-4.5 17.7-5.1 17.3-4.9 16.9-8.8-.3-2.7-1.2-3.7-5.8-6.5-10.5-6.2-15.4-7.6-27.5-7.6-6.1-.1-11.3-.5-11.7-1.1-1.7-2.3-8.8-25.8-11.1-37-4.1-19.4-5-30.7-4.4-54.4.6-23.3 2.2-35.7 7.6-57.6 3.7-14.9 11-36.3 16.2-47.4 4.4-9.5 4.8-11.2 1.8-8.5-14.2 12.7-27.6 50.7-32.3 91.4-1.2 9.9-1.6 23.3-1.5 50 0 25.2-.5 41.8-1.5 53.5-2.3 25.4-2 24.1-9.1 31.6-6.7 7.1-12.2 15.6-15 23.2-1.7 4.4-1.7 4.9-.2 6.4s2.1 1.5 7.8-1c3.4-1.5 6.5-2.4 6.8-2.1.7.7-4.9 22.9-11 43.1-4.8 16.2-15.9 47.1-24.3 67.8l-4.4 10.9-1.7-3.9c-7.8-18.6-16.7-58.3-21.6-96.5-3.2-24.6-3.7-69.6-1.1-101 1.1-12.9 1.7-23.9 1.4-24.3-1.9-3.5-5.8 16.2-7.7 39.2-6.3 77.1 7.2 158 36.2 216.1 5.4 10.7 7.9 16.8 7.3 17.4-1.4 1.4-1.2 7 .2 8.4.7.7 2.7 1.2 4.5 1.2 2.8 0 3.7.7 7.4 6.2 18.3 27.2 36.3 46.4 55.2 59l6.9 4.6-7.4 1.3c-4.6.9-14.5 1.4-27.3 1.3-17.5 0-21.2-.3-29.5-2.3-5.2-1.3-11.5-2.6-13.8-2.8-4.2-.5-4.3-.4-3.3 1.6.7 1.1 2.9 3 5.1 4.1s4.4 2.9 5 4.1c.7 1.1 2.8 3.8 4.7 6 4.1 4.5 3.5 4.7-4.9 1.5-21.5-8.1-33.1-17.1-45.3-35.1-18.4-27.3-35.3-83.9-42.2-141.5-2.2-17.8-2.5-80.1-.6-100 2-19.6 2.7-36 1.7-36s-4.8 13.9-6.3 23.5c-3.3 20-4.9 67.2-3.2 92 1.4 19 4.2 41.8 7.1 56.7 3.1 16.1 3.3 20.4 1.5 34.3-2.5 19.2-5.6 30.2-12.6 44.4-5.7 11.6-6.8 13.2-16.5 23-5.7 5.7-10.6 10.2-11 9.9-.3-.3.3-2.3 1.4-4.5 5.4-10.5 9.2-29.7 6.5-32.4-.6-.6-3.2 1.1-6.9 4.8-11.6 11.3-31.5 23.2-47.9 28.7-6 2-22.1 5.6-25.2 5.6-.2 0 2.1-3.5 5.2-7.9 5.5-7.9 9.1-14.9 8.1-15.8-.3-.3-2.5-.1-4.8.5-9.4 2.5-20.7 3.4-28.6 2.2-11.7-1.8-23.6-5.6-33.5-10.7l-8.8-4.6 3.8-3c8.1-6.4 27.1-26.6 33.3-35.5 13.5-19.1 24-39.8 33.8-66.2 7.1-19.1 12.5-38.2 25.1-88.5 15.4-61.2 22.9-84.9 37.7-118.5 11.7-26.5 28.1-54.2 43.7-73.6 9-11.1 27.4-28.5 38.8-36.7 9.7-6.9 39.6-22.7 43.1-22.7 1.1 0 1.8-.5 1.5-1.3-.2-.6-1-1.1-1.8-1-26 3.2-49.6 16.8-76 43.9-18.1 18.6-33.7 41.7-48.7 71.9-20.5 41.1-29.7 69.9-51.7 160.5-10.2 42-19 68.6-31.3 94-6.1 12.7-6.5 13.3-7.3 10.5-.8-2.9-6.8-52.8-9.1-75-1.8-18.6-1.5-65.9.5-80 10.5-70.6 46.1-139.6 94.2-182.7 40.5-36.1 79.9-56.4 144.3-74.4 9-2.5 19.2-5.6 22.7-6.9 14.6-5.5 45.3-9.9 90.5-12.9 12.3-.8 59 .4 69.8 1.8m64.1 215.4c2.9 4.1 5.1 7.5 4.9 7.7-.2.1-3.9.5-8.4.7l-8 .4-1.3-10.5c-.8-5.8-1.6-12.2-1.9-14.1l-.5-3.5 5 6c2.8 3.3 7.3 9.3 10.2 13.3m-212.8 38.4c-3 1.6-5.8 2.8-6.2 2.8-.3 0-.3-1.9.1-4.3.5-2.3 1.1-7.8 1.5-12.2 1.2-14.8 1.2-14.8 5.9-1.3l4.2 12.3zm228.2-19.8c3.5 1.3 8.7 3.8 11.7 5.7 6.8 4.1 16.2 11 15.7 11.6-.2.2-6-.4-12.8-1.4-9.1-1.2-19.6-1.7-39.6-1.7l-27.2-.1 4.2-4.3c4.8-4.9 11.8-8.5 22-11.3 8.8-2.3 17.1-1.9 26 1.5m8.9 22.1c2.5 1 17.5 36.8 23.2 55.8 3.9 12.9 8.6 35.2 8.8 41.5.1 5.9 1.8 6.6 10.6 4.8 3.8-.8 9.2-2.6 12-4 7.5-3.8 19.2-13.6 25.8-21.7 5.5-6.7 5.8-7 6.7-4.7 1.3 3.5.1 47.7-1.7 59.3-.8 5.5-1.6 10.4-1.6 10.8 0 .5-1.7-.5-3.7-2.1-6.3-4.9-14.4-8.9-22.8-11.3-4.4-1.2-8.1-2.3-8.3-2.5-.2-.1.5-1.7 1.4-3.7 2.4-5.1 1.3-8.7-2.7-8.7-1.7 0-4.4.9-6 2-7 5.1-11.8 6.3-24.9 6.5-22.7.4-36.6 3.9-49.2 12.1-12.1 8-17.4 20.7-11.2 26.8 2.1 2.2 4 2 19-1.4 41.8-9.4 68.7-11 101.6-6.2l4.6.7-3.3 13.3c-1.9 7.4-3.1 14-2.8 14.8.6 1.7 5.7 1.8 12 .2l4.7-1.1 4.8 5.2c8.7 9.5 12.7 21 11.5 33.4-1 10.5-1.7 11.4-8.4 12.2-20.9 2.3-32.2 5.1-47.3 11.9-27.1 12.1-46.9 31.9-64.1 64.1-2.8 5.2-5.8 9.9-6.7 10.4-7.7 4.1-48.7 15-69.8 18.5-28.6 4.8-70.6 8.3-83.6 7.1-2.4-.2-10.8-.7-18.8-1-28.3-1.1-58.7-5.4-75.8-10.7l-10.2-3.1-7.4 3.6c-4.1 2-10.9 4.6-15.2 5.8-6.9 1.9-9.6 2.1-25.3 1.6-14.1-.3-19.1-.9-24.9-2.6-25.4-7.4-48.4-29.4-52.1-49.5-.6-3.3-1.1-6.8-1.1-7.8s2.8-4.7 6.3-8.1c12.4-12.3 19.2-23 25.2-40l2.8-7.7h4.8c5.7 0 7.1 1.2 9.5 8.2.9 2.9 4.1 10.6 7 17.1 4.8 10.8 5.1 11.8 3.1 11.2-4.2-1.4-30.3-1.8-32.6-.5-4.5 2.4-1.6 3.5 12.6 4.6 11.8 1 15.1 1.7 21.5 4.4 6.5 2.7 8.3 3.9 11.7 8.5 12.6 16.6 33.3 29.4 55.7 34.2 12.3 2.7 13.6-.1 4.7-9.8-3.2-3.5-5-6-4.1-5.6 1 .3 6.6 1.1 12.5 1.8 25.7 2.8 60.1-3.1 60.3-10.3 0-.4-2.1-1.9-4.7-3.2-13.7-7-32.5-23.6-46.3-40.8-8.3-10.4-19.6-26.6-18.9-27.1.2-.2 6.9-2.8 14.9-5.9 24.9-9.6 41.4-14 71.8-18.8 36.4-5.8 39.2-6.8 39.2-13.9 0-4.9-11.9-13.7-22.9-17.2-9.5-2.9-24.7-5-31.1-4.3-7.7.8-21.5 4.6-36.6 10-18.6 6.7-24.1 8.3-30.9 9-10.3 1-13.7 3.2-11.5 7.5.6 1 2.8 2.8 4.9 3.9l3.9 1.9-5.5 5.5c-3 3-5.8 5.6-6.1 5.8-1 .4-7.4-12-11.7-22.8l-3.7-9 2.5-3.6c3.5-5.3 17.5-41.1 26.1-67 6.1-18.2 13.6-44.6 17-60.1.5-2.2 1.8-3.3 5.9-5.1 6.1-2.7 25-9.6 26.3-9.6.5 0 2.2 2.4 3.8 5.3 10 17.7 26.4 39.2 42.2 55.5l10.4 10.6.2 18.4c.3 18.5.3 18.5 2.8 20.4 2.3 1.6 3.2 1.7 7.7.8 2.8-.6 8.9-3 13.5-5.3 22.1-11.1 37.8-25.6 48-44.2l2.7-4.9 1.1 2.9c8.5 22.5 10.6 26.5 13.8 26.5 1.9 0 10-11.7 14.9-21.5 9.2-18.2 18.1-50.4 20.4-74.3.6-5.9 1.3-11.8 1.6-13.1l.4-2.4 16.7.6c9.2.3 17.5.9 18.4 1.2m-202.7 1.6c2.2.6 6.1 2 8.8 3.1l4.7 2.1-21.7 7.2c-21.8 7.2-39.7 14.1-49.4 19-2.8 1.5-5.3 2.5-5.5 2.3-.7-.7 6.8-11.3 11.5-16.1 8.1-8.6 19.3-15.1 30-17.6 5.2-1.3 17-1.3 21.6 0m358 158.9c1.7 15.9 1.9 28.8.3 38.5-.5 3.8-1.1 8.5-1.2 10.3-.1 3.3-.2 3.4-3.6 2.7-6-1.2-7.2-1.1-8.4.8-.9 1.6-.4 2.5 4.2 6.6 2.9 2.6 7.8 6.1 10.9 7.7l5.6 2.8-3.4 1.5c-1.9.7-6.8 1.4-10.9 1.5-8.3.1-32-1.4-32-2.1 0-.2.5-3.6 1.1-7.4 2.2-14.2-2.5-31.3-11.4-41.4l-3.5-4 10.5-5.2c12.6-6.2 22.4-13.5 31.8-23.4 8.3-8.8 7.8-9.5 10 11.1m150.5 19.7c6.8 7.2 12.9 16.1 17.9 26l3.1 6.3-2.7.5c-19.7 4-50 13.6-67.3 21.2-16.3 7.2-31.4 14.8-36.8 18.5-2.4 1.7-4.6 2.7-4.9 2.4-1.1-1.1 4.2-13.1 10.2-23.1 13.9-23.2 28.1-36.8 52-49.6 7.5-4.1 18.7-8.7 21.1-8.8.7-.1 4 2.9 7.4 6.6m-101.1 1.6c3.6 3.4 7.9 7.2 9.5 8.3l2.8 2.1-7.8 5c-18.8 12-24.3 14-41.4 14.9l-10.5.6 6-4c11-7.4 21.2-17.1 30.4-29 1.8-2.3 3.5-4.2 3.9-4.2.3 0 3.5 2.8 7.1 6.3m-565.2 31.4c-.2.1-1.3 0-2.5-.4-2.3-.6-2.9-4.1-1.5-9.3.6-2.2.9-1.7 2.4 3.5 1 3.2 1.7 6 1.6 6.2m651.8 38.7c9.1 2.4 25.3 9.3 29.9 12.8 1.8 1.4 1.7 1.6-1.6 5.4-1.9 2.1-7.4 9.1-12.3 15.4-4.8 6.3-9.2 11.4-9.8 11.2-.5-.2-3-1.7-5.4-3.3-9-6.2-37.1-17.9-43-17.9-1.1 0-6.7-3-12.5-6.8-5.8-3.7-11.4-7.2-12.4-7.9-3-1.8 12.9-8.9 24.3-10.8 12.9-2.1 30.2-1.3 42.8 1.9m-704.3 9.8c-1.6 4-4.4 10.8-6.3 15l-3.4 7.8-5-.7c-2.7-.4-13.1-.8-23-.8h-18l8-2.3c13.3-3.9 31-13.6 45-25 6.1-5 6.6-3.9 2.7 6m447.8 13.5c-13.1 26.1-28.1 79.6-30.8 109.8l-.7 7.9-3.8 1.5c-2 .7-4 1.2-4.3.9-.8-.8 2.3-23.6 5.1-38 6.3-31.8 18-65.8 28.2-82.2 2.4-3.8 10.2-11.4 12-11.6.1 0-2.4 5.3-5.7 11.7m-19.9 17.9c-9.7 22.5-18.6 56.9-22.3 86.4-1.7 14.2-2.5 17.7-4 18.8-1.6 1.2-1.8 3-1.8 20 .1 10.3.5 22.1 1 26.2.4 4.1.7 7.6.6 7.7s-2.8.6-6.1 1.2-7.1 1.3-8.4 1.7l-2.4.7.6-19.4c1.8-56 14.1-104.7 34.4-136.4 5.1-7.8 11.5-16.6 12-16.2.1.2-1.5 4.4-3.6 9.3M689 1211c0 .5-.9 1-2.1 1-1.1 0-1.7-.5-1.4-1 .3-.6 1.3-1 2.1-1s1.4.4 1.4 1m-10.6 5.4c4.8.8 9 1.7 9.3 2s-6.4.2-14.8-.1c-26.6-1-41.2 2.3-46.6 10.6-2.7 4-3 10.4-.9 15.5l1.4 3.3-7.2 1.7c-3.9.9-7.5 1.8-8.1 1.9-1.4.3-4.1-10.5-4.9-19.9l-.7-8.2 6.3-2.1c14-4.6 22.5-5.9 40.3-6 10.4-.1 20.4.5 25.9 1.3m17.4 16.2c6.5 11.5 18.4 23.1 31.7 30.9 6.1 3.5 6.5 3.9 5.2 5.8-.7 1.1-3.7 3.4-6.6 5-6.1 3.5-11.9 3.9-17.2 1.2-8.1-4.1-9.8-7.7-6.9-14.3 1.2-2.7 1.7-4.9 1.1-5.5-3-3-9.1 4-9.1 10.5 0 4.3 1.1 7.1 4.3 10.5l2 2.3-3.9 1.6c-5.3 2.3-13.8 2.4-16 .3-1.5-1.6-1.3-1.7 2.4-2.4 4-.6 7.1-2.8 5.5-3.8-.4-.3-3.5-.1-6.8.5-17.4 2.8-39.7-9.8-47.7-26.8-3.8-8-4-12.5-.9-15.8 4.9-5.2 13.6-6.6 39.6-6.2l20 .3zm380.8 25.5c-1.9 4.1-5.2 12.5-7.3 18.6-2.1 6.2-4.2 11.3-4.8 11.3-.5 0-10-4.5-21-9.9l-20-9.8 4.5-1.2c13.7-3.7 38.4-11.4 44.5-13.9 3.9-1.6 7.1-2.8 7.3-2.7.1.1-1.3 3.5-3.2 7.6m-439.6 3.8c3.7 3.7 8.8 8.1 11.5 9.6 5.7 3.4 16.7 7.5 19.9 7.5 1.3 0 3.1.9 4.2 2.1 3.1 3.4 7.5 5.3 13.7 5.9l5.9.5-10 11.1c-10.8 12-32.7 32.4-34.8 32.4-2.3 0-15.5-15.3-23.5-27.3-8.5-12.6-16-26.7-19-35.6-1.1-3-1.9-5.7-1.9-6.1s3.3-1.7 7.3-2.8c19.6-5.7 18.5-5.8 26.7 2.7m653.6 3.9c2.5 1.3 8.2 11.9 11.7 21.9 3.1 8.4 6 23 5.5 27.4-.3 2.9-.6 2.6-6-5.7-3.1-4.9-8.8-12.7-12.5-17.4l-6.8-8.4-11.5-3c-10.6-2.7-13-2.9-30.7-3-14.9-.1-18.9-.4-18.1-1.3 2.2-2.8 24.1-9.7 36.3-11.7 5.6-.8 30 0 32.1 1.2m-262.3 10.6c7.2 3.8 12.7 7.4 13.5 8.8 1.8 3.1 1 26.6-1.2 36.7-.9 4.1-1.8 7.6-2 7.8s-3-3.3-6.2-7.9c-10.8-15.5-32.9-36-42.9-39.8-2.2-.8-2.6-1.5-2.3-4.2l.3-3.2 12.5-1.8c10.8-1.5 14.4-2.1 15.8-2.7.2 0 5.8 2.8 12.5 6.3m-171.1.8c-6 8.7-14.5 27.8-17.3 38.8-1 3.7-1.3 4.2-2 2.5-1.6-4.1-1-15.3 1.2-21.1 2.3-6.1 8.7-14.7 15.2-20.6 5.5-5 6.5-4.8 2.9.4m45.3-.2c8.3.6 17.4 1.1 20.3 1.3l5.2.2-3.5 5c-4.9 6.9-14.6 26.1-18.8 37.5-7.8 21-11 41.2-10.5 66 .3 13.9.5 16.1 2.2 17.9 2.8 3.1 5.6 2.6 11.9-1.9l5.5-4 .4 8.2c.3 7.9.2 8.6-3 14-4.2 7.2-4.8 11.2-3.2 19.7 1.2 6.3 1.1 7.3-1 13.7-3.9 11.7-16.8 45.6-17.8 46.6-2 2-55.3.7-66.9-1.8-2.1-.4-1.8-1.1 4.8-14.9 16.1-33.8 27.8-66.2 36.8-102.2 9-35.9 12.5-62.6 11.9-90.7l-.3-16.8 5.5.6c3 .3 12.3 1 20.5 1.6m77.5 4.9c0 7.8.9 11.8 2.7 12.6 2.5.9 4.3-1.5 4.3-5.7v-3.9l8.1 6.2 8 6.2-2.9 2.4c-1.7 1.3-4.3 4.3-5.9 6.8-1.5 2.5-3.2 4.5-3.6 4.5-1.2 0-50.9-24.6-53.1-26.3-1.9-1.4-1.9-1.6-.3-4.1 1.7-2.5 2.2-2.6 10.5-2.7 4.8-.1 11.9-.5 15.7-.9 3.9-.4 9.1-.8 11.8-.8l4.7-.2zm285.5 2c5 1.1 10 2.3 11.2 2.8 2.5.9 16.6 18.6 22.6 28.3 3.7 5.9 3.7 6 1.3 6-5.3 0-8.6-1.2-8.6-3.2 0-8.1-12.7-18.7-22.5-18.8-3.5 0-4.7-.7-9.4-5.5-7.9-8-12.5-10-23.8-10-5 0-9.5-.4-9.9-.8s6.2-.7 14.7-.7c11.3 0 17.8.5 24.4 1.9m-215.3 20.1c.1 12.7-1.4 21.1-5.7 31.4-2.5 5.8-2.9 3.6-.7-3.6 3-9.7 4.5-21.1 4.5-33.8 0-8 .3-10.7.9-9 .5 1.4 1 8.1 1 15m-108.1-10.4c5.2 3 12.8 7.1 16.9 9.1 30.3 14.4 42.2 20.7 56.3 30 9.1 6.1 8.2 6.8-8.1 6.7-11.3-.1-16-.8-43.2-6.3-19.3-4-34.2-6.4-40.7-6.8l-10.2-.6 2-5.1c4.3-11.1 15.7-32.6 17.3-32.6.2 0 4.6 2.5 9.7 5.6m303-4c4.3 1.3 6.6 2.9 11.5 8 5.7 5.8 6.6 6.4 10.3 6.4 7.5 0 15.3 4.7 18.7 11.2.8 1.5 1.4 2.9 1.4 3.1 0 .3-2.7.7-6 1.1-8.2.9-12.1 2.4-26.3 10.2l-12.1 6.6-12.8-6.3-12.7-6.3-.7-5.3c-.7-6.2 0-11.1 2.7-17.3 2.6-5.7 5.4-8.8 10.4-11.1 4.9-2.3 8.6-2.4 15.6-.3m-187.4 13.6c.9 17.7-2.3 34.5-8 41.4-4.5 5.4-5 2.8-1.1-5.1 5.7-11.7 7.7-21.8 7.2-36.3-.3-7.8-.1-11.9.5-11.3.5.5 1.1 5.6 1.4 11.3m-44 5.2c7.6 8.1 14 16.5 18.4 24.1 5.5 9.3 5.3 9.9-1.4 4.2-5.8-4.9-22.9-16.2-30.4-20.1-1.8-.9-3.3-2.3-3.3-3 0-1.5 8.7-11.6 10-11.6.4 0 3.4 2.9 6.7 6.4m155.1 10.7c22 2.4 37.2 6.8 56.7 16.3 15.2 7.5 26.1 14.6 38.7 25.2 8.3 7.1 19.2 19.4 18.1 20.4-1.7 1.6-14.2 5-23.3 6.5-12.4 2-33.1 1.9-50-.2-19.4-2.3-20.4-2.3-20.8.5-.2 1.6.7 3.3 3 5.5 1.9 1.8 5.7 5.6 8.4 8.6 4 4.5 4.3 5.1 1.7 3.3-7-4.9-12.1-6.4-21.7-6.4-10.3 0-28.9 3.7-39.6 8-5.7 2.2-7.9 2.6-17.3 2.5-9-.1-11.1-.4-12.9-1.9-3.5-3.2-11-14.3-12.4-18.5-2.7-7.7-4.2-20.7-4.9-41.1l-.7-20.7 5.2-1.5c7.2-2.2 23.2-5.5 31-6.5 9.6-1.2 29.7-1.3 40.8 0m128.6 6c9.3 1.4 11.4 3.2 6.2 5.4-6.8 2.9-15.1 4.6-24.7 5.2-10 .6-20.9-.3-20.9-1.7 0-.9 13.4-7.7 17.7-9 4.1-1.2 13.1-1.2 21.7.1M961 1337.5c31 6.3 44.4 7.6 57.9 5.5 7.5-1.2 8.3-1.1 10.2.5 3.6 3.4.8 4-17.9 4-18.9-.1-22.7-.6-60.7-8.1-13.5-2.7-20.8-3.7-29.2-3.8-6.2 0-11.3-.2-11.3-.3s.4-1.2.9-2.5c.9-2.3 1-2.3 11.7-1.7 6.9.5 21.1 2.8 38.4 6.4m-11.5 7.3c28.2 5.8 49.5 8.5 63.5 7.9 7.6-.3 14.3-1.1 17-2.1 4.4-1.5 4.6-1.5 6.8.8l2.4 2.3-7.9 2.9c-6.5 2.4-9.2 2.8-16.2 2.7-13.1-.3-46.8-4.8-78.1-10.5-6.3-1.1-15.7-2.1-20.8-2.2-7.3 0-9.1-.3-8.7-1.4.3-.8.5-2.1.5-2.9 0-2.6 23.2-1.2 41.5 2.5m111.8 14.6-.8 4.7-3.7-4.9-3.7-5 2.3-2.1c1.3-1.2 3.2-3.8 4.2-5.7l1.9-3.5.3 5.9c.2 3.3-.1 8.1-.5 10.6M915 1371.8v16.8l-6.2 4.6-6.3 4.6-.3-5.1c-.3-4.9 1.1-23.5 2.5-32 .6-4.1 2.5-5.5 7.6-5.6l2.7-.1zm138.2-6.9c6.5 8.5 8.6 13.6 9.2 23.3l.5 8.7-4.7-1.8c-2.6-1-11.6-5.2-20.1-9.2l-15.4-7.3 5-4.6c4.1-3.7 19.6-13.9 21.3-13.9.3 0 2.2 2.2 4.2 4.8m-30.2 3.7c0 .1-1.3 1.7-2.8 3.7l-2.9 3.6-6.4-3.6c-3.5-1.9-6.6-3.7-6.8-3.9s3.9-.3 9.2-.2c5.3.2 9.7.4 9.7.4m389.5 5.7c1.8 1.5 2.8 3.6 3.2 6.5.5 3.7.1 5-3.1 10.2l-3.7 6 2.1 4.7c4.6 10.3 3.4 21-4 35.9-5 9.9-9 14.8-14.2 17.5-8.3 4.2-15.8.3-14.4-7.5.4-2.1 1.3-3.6 2.1-3.6 3.6 0 11.7-2.4 13.7-4 1.8-1.5 2-2.1 1.1-3.1-1-1-2.3-.9-6.6.4-3 .9-6.3 1.7-7.4 1.7-1.9 0-2-.4-1.3-3.7 1.1-4.5 3.9-8.5 7-9.8 7-3 10.5-5.2 10.8-6.8.4-2.2-1.9-2.2-6.6.2-7.3 3.6-8.4-.8-2.2-9 2.2-3 3.9-6 3.8-6.8-.2-.8-2.1-2.4-4.2-3.5-5.9-3.1-6.5-4.8-3.8-10 3.1-5.9 7.5-9.9 15.2-14.1 7.7-4.1 9-4.2 12.5-1.2m-113.5 6.6c4.1 1.6 13.2 5.6 20.1 8.9 14.3 6.8 13.2 5.2 14.9 20.8 1.3 12.1.5 16.8-4 22.4-2.8 3.5-3.6 4-6.4 3.6-1.7-.3-6.5-.8-10.7-1.1l-7.6-.6.5-4.9c.3-3.8 0-5.5-1.7-7.8-1.7-2.5-1.9-3.5-1.1-5.7 2.2-5.9.5-11.7-4.2-13.6-5.9-2.4-22.5.9-40.5 8.2-3 1.2-3.4 1.1-5.9-1.4-4.3-4.3-9.5-5.2-18.4-3.1-4.1.9-9.7 2.5-12.5 3.4l-5 1.7-8.3-9.8c-4.5-5.5-7.7-9.9-7.1-9.9.7 0 8 .7 16.3 1.6 17.2 1.8 28.7 1.5 47.6-1.6 15.2-2.5 25.9-5.5 26.7-7.7.3-.8.1-2.4-.5-3.4-2.4-3.7-1.8-3.7 7.8 0m-208 6.3c0 2.8 4.9 11.5 9 16.1l4.2 4.8-4.3-.7c-6.7-1-21.1-4.1-24-5.2-2.7-1.1-3.9-4.3-3.9-10.7 0-3.3 0-3.3 6.3-4.3 9.2-1.4 12.7-1.4 12.7 0m205 25c0 1.3-2.5 5.4-5.5 9.2-4.5 5.6-5.3 7.1-4.4 8.7 1.5 2.8 3.9 2.3 7.9-1.6 3.3-3.2 3.8-3.4 5-2 1 1.2 1.1 2.4.1 5.4-.6 2.1-1.1 6-1.1 8.7-.1 7-1.7 13.4-4.5 17-1.3 1.7-3.3 5.6-4.4 8.7-1.8 5.4-8.3 17.1-10 18.1-.4.3-1.3-2.7-2-6.7-2.8-16-10.3-44.7-13.6-51.6l-3.4-7 4.2-1.5c14.2-5.2 21.9-7.3 27.5-7.5 3.7-.1 4.2.2 4.2 2.1m-331.5 25.5c22.2 29.5 45.4 52.2 78.8 77 7.9 5.8 13.3 10.5 12.6 10.7-2.4.8-15.6 2.6-19.2 2.6h-3.4l.1-7.4c.1-8.5-1.5-11.8-7.5-14.9-3.7-2-4-2-29.5.3-9.6.9-13.8.9-15.2.1-1.2-.6-3.8-1.1-5.9-1.1-5.1 0-16-2.7-18.6-4.5-1.2-.8-3.4-1.5-4.9-1.5-2.5 0-2.8-.4-2.8-3.1 0-10.2 2.4-33.7 4.3-41.4 1.6-6.6 2.1-11.6 2-18.8-.1-5.3-.1-9.7.1-9.7s4.3 5.2 9.1 11.7m490.7 24.5c12.8 6.7 25.2 13.3 27.5 14.7l4.1 2.6-3 7.2c-1.7 4-3.6 7.3-4.3 7.3-.6 0-5.9-3-11.6-6.6-29.8-19.1-34.5-21.4-42.5-21.4-4.3 0-5.6-.4-6.1-1.8-.3-.9-1.6-4.3-2.8-7.4l-2.2-5.7 2.1-.4c1.1-.2 5.1-.5 8.8-.6l6.6-.1zm-181.3 35.5c.6 3.1.7 6.1.3 6.5-.5.5-6.5 1.7-13.3 2.8-6.8 1-13.9 2.2-15.8 2.6-3.1.6-3.4.5-2.7-1.2.4-1 1-4 1.3-6.5l.5-4.6 6.7-.7c3.6-.3 9.5-1.4 13.1-2.5 3.6-1 7-1.9 7.6-2 .6 0 1.6 2.5 2.3 5.6m-320.1 6.5c.7.7 1.2 2.2 1.2 3.5 0 2.9 3 3.1 3.7.3.3-1.1.6-2 .7-2 0 0 4.4.9 9.6 2 7 1.4 9.9 2.5 10.9 4 1.5 2.3 3.6 2.6 4.4.7.4-1 5.4-1.7 18.6-2.7 23.8-1.7 24-1.6 25.6 11.6l.7 6.1-3.3.5c-5.6.8-35-1-51.4-3.2-15.8-2.1-30.4-4.6-31.2-5.4-.3-.2-.7-3.1-1-6.4-.5-5.2-.3-6.2 1.6-8.1 2.3-2.3 7.9-2.9 9.9-.9"/><path d="M1065.9 1030.4c-9.8 2.8-20.9 10.7-19.6 14.1.5 1.3 1.5.9 5.7-2.1 8.3-5.9 17.5-8.6 30-8.6 5.8-.1 12.3.2 14.5.6 4.4.7 7.7-.6 6-2.3-3-3-27.7-4.1-36.6-1.7m-155.4 29.7c-9.2.9-22.1 4.5-31.5 8.7-6.5 2.9-13 7.6-13 9.3 0 1.5 3.1 1 6.5-1.1 8.8-5.4 32.8-12 44-12 3.9 0 7.6-.4 8.4-.9 1.9-1.2.6-4.1-1.8-4.1-1.1 0-2.5-.2-3.3-.4-.7-.2-4.9 0-9.3.5m219.5 42.7c0 .5 3.2 5.3 7.1 10.8 3.9 5.4 9.4 13.4 12.1 17.6 4.6 7.2 7.8 9.8 7.8 6.4 0-3.3-23.1-35.6-25.5-35.6-.8 0-1.5.4-1.5.8m29 1.3c0 .6 5.5 6.3 12.1 12.8 15.2 14.6 19.9 17.4 16.9 10.2-1.3-3.3-14.1-16-21.1-21-4.2-3.1-7.9-4-7.9-2m-49.6 8.3c-.5 1.3 17.7 30.2 20 31.8 1.9 1.3 3.1.2 2.9-2.6-.3-4.7-18.5-30.6-21.4-30.6-.6 0-1.2.6-1.5 1.4m-91.4 17.7c-41.3 4.5-67.9 20.8-72.9 44.7-2 9.8-.9 25.1 2.9 38.7 2.2 7.7 8.2 16.9 16.4 25.1 6.7 6.7 9.8 9 18 13 9.9 4.9 9.9 4.9 20 4.9 8.6 0 11.2-.4 17.6-2.8 19.9-7.3 33.8-25.4 41.9-54.2 8.4-30 8.7-41 1.9-55.2-3.1-6.4-7-10.3-13.4-12.9-4.6-1.9-21-2.6-32.4-1.3m33.5 8.3 2.9 1.9-2.3 1.8c-3.7 3-17.3 7.7-30.8 10.6-11.4 2.5-14.7 2.7-30.8 2.7-9.9-.1-19.3-.6-20.9-1.1l-3-.9 6.1-3.7c15.3-9.3 35.2-13.7 61.3-13.4 12.5.2 15 .5 17.5 2.1m9.2 13.9c3.3 9.8 1.8 24-5.3 47.5-7.9 26.1-18.9 40.6-36.4 47.9-5.5 2.3-7.9 2.7-16 2.8-9.3 0-9.7-.1-18-4.4-11-5.6-22.9-17.3-28.2-27.6-8.4-16.5-9.1-39.7-1.6-52.6 3.6-6.1 6.2-8.3 9.1-7.5 11.2 2.8 35.6 3.5 51.8 1.5 17.1-2 33.1-7.3 38-12.5 2.8-3 4.2-2 6.6 4.9m-155.7-8.1c0 .7 2.3 4.2 5.1 7.8s8.4 10.8 12.4 16.1c6.6 8.6 10 11.8 11.2 10.5 1.1-1.1-3.5-8.8-10.8-18.2-10.8-13.8-17.9-20.2-17.9-16.2m-22.3 4.5c-1.8 1.7-.1 5.9 7.6 18.4 9.3 15.5 10.4 16.9 12.3 16.9 3.4 0 1-5.9-8.3-20.6-5.3-8.5-10-15.4-10.3-15.4-.4 0-1 .3-1.3.7M860 1155c0 2.6 2.2 7 9.4 18.5 7.3 11.6 10.6 14.3 10.6 8.7 0-1.7-3.1-7.5-8.5-15.7-8.2-12.7-11.5-16-11.5-11.5m350.6 27.2c-.9 1.2-1.6 3-1.6 3.8 0 3.4-2.4 4.8-9.5 5.4l-7.1.7-.9-3.3c-.7-2.3-1.7-3.4-3.3-3.6-3.6-.5-5.4 1.6-5 6.2.3 4 .2 4.1-5.7 7.4-20.6 11.5-25.1 28.9-11.9 46.5 6.6 8.8 12.4 13.6 22.1 18.4 14.2 7 26.3 4.5 37.7-7.8 11.6-12.5 15.6-20.8 15.5-31.7 0-3.7-.8-9.2-1.8-12.2l-1.7-5.5 3.3-4.3c3.5-4.7 4.2-8.2 1.8-10.2-2.1-1.7-5.1-.3-7.5 3.6-2.1 3.3-3.5 4.2-4.2 2.6-.6-1.4-6.2-4.9-9.8-6.1-3.5-1.1-3.6-1.2-3.5-6.4 0-4.9-.2-5.2-2.7-5.5-1.8-.2-3.1.4-4.2 2m9.9 17.7c5.1 2.3 7.8 5.4 10.6 11.6 3.2 7.3 3.6 15.7 1 22.7-3.1 8.1-15.4 22-21.5 24.3-6.5 2.5-13 1.6-22.4-3-8.5-4.2-19.4-14.2-22.5-20.7-6.5-13.8 5.6-29.4 27.5-35.2 7.9-2.2 22.4-2 27.3.3"/><path d="M1193.1 1200.9c-7.3 1.9-12.2 7.6-12.4 14.6-.2 4.5 0 5 2.8 6.4 1.6.8 4.8 1.4 7 1.4 11.7 0 24.2-14.7 17.6-20.7-2.2-2-10.2-2.9-15-1.7m5.9 6.1c0 5.3-7.9 10.2-10.9 6.6-1.5-1.8-.4-4.4 2.8-6.1 3-1.6 8.1-2 8.1-.5m143.6 31.2c-.9 1.2-1.6 2.8-1.6 3.5s-.8 1.3-1.7 1.3c-3.2.1-9.9 3.7-13.1 7.1-10.4 11.2-12.2 30.8-4.3 47.5 1.6 3.3 4.3 7.7 6 9.7 2.8 3.1 3 3.8 1.9 5.6-.7 1.1-.9 2.3-.5 2.7s4.6-.5 9.4-1.9c16.6-4.9 30.6-6.1 51.1-4.3 6.9.6 10.2.5 10.2-.2 0-1.5-7.7-4.9-12.8-5.7-4.1-.7-4.3-.8-3.7-3.4 1.6-5.6 2.4-10.8 2.5-14.7 0-3.9.1-4 2.8-3.6 5.2.7 8.1-4.7 4.5-8.3-1.1-1.2-2.6-1.5-4.8-1.2-3.1.5-3.2.3-5-5-1.1-3.1-3.2-7.4-4.8-9.6-2.3-3.1-2.7-4.4-2-6.1 2.1-4.9-1.4-7.8-6.8-5.6-2.5 1.1-3.6.9-7.8-.9-2.8-1.1-6.1-2.1-7.6-2.1-1.9 0-2.8-.7-3.6-2.7-1.8-4.8-5.8-5.8-8.3-2.1m19.8 14.7c7.6 3.7 12.4 9.3 15.3 17.4 2.3 6.7 2.3 20.2-.1 27.3l-1.7 5.1-10.7.5c-6.4.3-14 1.4-19 2.8l-8.3 2.3-3.9-3.8c-7.9-7.7-12.6-24.6-10.1-35.9 1.7-7.6 6.5-14.5 12.1-17.4 6.7-3.5 17.4-2.8 26.4 1.7"/><path d="M1361.6 1271.2c-3.3 4.7-1 14 5.2 20.5 3.3 3.7 4 3.9 6.6 2 4.3-3.2 3.7-16-1.1-21.7-3.2-3.8-8.4-4.2-10.7-.8m7.6 5.5c2.4 2.8 3.1 8.2 1.1 9-2.3.9-5.3-3.2-5.3-7.3 0-3.8 1.8-4.5 4.2-1.7m-389.9 109.5c-2.8 2.9-8.5 9.7-12.7 15.1-7 9.1-8.9 12.7-6.7 12.7 1.3 0 27.1-30.7 27.1-32.3 0-2-3.1-.2-7.7 4.5"/></svg>